<?xml version="1.0" encoding="UTF-8"?>
<svg width="28px" height="23px" viewBox="0 0 28 23" version="1.1" xmlns="http://www.w3.org/2000/svg"
     xmlns:xlink="http://www.w3.org/1999/xlink">
    <!-- Generator: Sketch 51 (57462) - http://www.bohemiancoding.com/sketch -->
    <title>next-gen-project</title>
    <desc>Created with Sketch.</desc>
    <defs></defs>
    <g id="Symbols" stroke="none" stroke-width="1" fill="none" fill-rule="evenodd">
        <g id="Create-dropdown_new_non-admin" transform="translate(-10.000000, -128.000000)">
            <g id="Group-5">
                <g id="next-gen-project">
                    <g transform="translate(10.000000, 129.000000)">
                        <g transform="translate(0.000000, 3.000000)" fill="#C0B6F2">
                            <path d="M9.58087683,1.9 L21,1.9 C22.1045695,1.9 23,2.7954305 23,3.9 L23,17 C23,18.1045695 22.1045695,19 21,19 L2,19 C0.8954305,19 1.3527075e-16,18.1045695 0,17 L0,5.9 L0,2 C-1.3527075e-16,0.8954305 0.8954305,2.02906125e-16 2,0 L7.58333333,0 C8.65437036,-1.96746309e-16 9.5287737,0.841888846 9.58087683,1.9 Z"
                                  id="Combined-Shape"
                            fill="#C0B6F2"
                            ></path>
                            <path d="M0,4 L23,4 L23,17 C23,18.1045695 22.1045695,19 21,19 L2,19 C0.8954305,19 1.3527075e-16,18.1045695 0,17 L0,4 Z"
                                  id="Rectangle" style="mix-blend-mode: multiply;"
                                  fill="#BE8EF2"
                            ></path>
                        </g>
                        <path d="M21.6706896,8.00558265 L18.0082747,9.59622279 C17.9069607,9.64022497 17.7891585,9.59376449 17.7451563,9.4924504 C17.7230835,9.44162823 17.7230835,9.38392656 17.7451563,9.33310439 L19.3357965,5.67068957 L17.7451563,2.00827475 C17.7011542,1.90696065 17.7476146,1.78915853 17.8489287,1.74515635 C17.8997509,1.72308354 17.9574526,1.72308354 18.0082747,1.74515635 L21.6706896,3.33579648 L25.3331044,1.74515635 C25.4344185,1.70115416 25.5522206,1.74761464 25.5962228,1.84892873 C25.6182956,1.8997509 25.6182956,1.95745257 25.5962228,2.00827475 L24.0055827,5.67068957 L25.5962228,9.33310439 C25.640225,9.43441848 25.5937645,9.5522206 25.4924504,9.59622279 C25.4416282,9.6182956 25.3839266,9.6182956 25.3331044,9.59622279 L21.6706896,8.00558265 Z"
                              id="Star-Copy-2" stroke="#FFE380" fill="#FFAB00"
                              transform="translate(21.670690, 5.670690) rotate(45.000000) translate(-21.670690, -5.670690) "
                        ></path>
                    </g>
                </g>
            </g>
        </g>
    </g>
</svg>